<svg xmlns="http://www.w3.org/2000/svg"  viewBox="0 0 100 100" width="100px" height="100px"><path fill="#c7ede6" d="M87.215,56.71C88.35,54.555,89,52.105,89,49.5c0-6.621-4.159-12.257-10.001-14.478 C78.999,35.015,79,35.008,79,35c0-11.598-9.402-21-21-21c-9.784,0-17.981,6.701-20.313,15.757C36.211,29.272,34.638,29,33,29 c-7.692,0-14.023,5.793-14.89,13.252C12.906,43.353,9,47.969,9,53.5C9,59.851,14.149,65,20.5,65c0.177,0,0.352-0.012,0.526-0.022 C21.022,65.153,21,65.324,21,65.5C21,76.822,30.178,86,41.5,86c6.437,0,12.175-2.972,15.934-7.614C59.612,80.611,62.64,82,66,82 c4.65,0,8.674-2.65,10.666-6.518C77.718,75.817,78.837,76,80,76c6.075,0,11-4.925,11-11C91,61.689,89.53,58.727,87.215,56.71z"/><path fill="#fdfcef" d="M38.875,33.5c0,0,3.64,0,6.125,0s4.5-2.015,4.5-4.5c0-2.333-1.782-4.229-4.055-4.455 C45.467,24.364,45.5,24.187,45.5,24c0-2.485-2.015-4.5-4.5-4.5c-1.438,0-2.703,0.686-3.527,1.736 C37.333,18.6,35.171,16.5,32.5,16.5c-2.761,0-5,2.239-5,5c0,0.446,0.077,0.87,0.187,1.282C27.045,22.005,26.086,21.5,25,21.5 c-1.781,0-3.234,1.335-3.455,3.055C21.364,24.533,21.187,24.5,21,24.5c-2.485,0-4.5,2.015-4.5,4.5s2.015,4.5,4.5,4.5s9.5,0,9.5,0 h5.375V34h3V33.5z"/><path fill="#472b29" d="M32.5,16c-3.033,0-5.5,2.467-5.5,5.5c0,0.016,0,0.031,0,0.047C26.398,21.192,25.71,21,25,21 c-1.831,0-3.411,1.261-3.858,3.005C21.095,24.002,21.048,24,21,24c-2.757,0-5,2.243-5,5s2.243,5,5,5h14.875 c0.276,0,0.5-0.224,0.5-0.5s-0.224-0.5-0.5-0.5H21c-2.206,0-4-1.794-4-4s1.794-4,4-4c0.117,0,0.23,0.017,0.343,0.032l0.141,0.019 c0.021,0.003,0.041,0.004,0.062,0.004c0.246,0,0.462-0.185,0.495-0.437C22.232,23.125,23.504,22,25,22 c0.885,0,1.723,0.401,2.301,1.1c0.098,0.118,0.241,0.182,0.386,0.182c0.078,0,0.156-0.018,0.228-0.056 c0.209-0.107,0.314-0.346,0.254-0.573C28.054,22.218,28,21.852,28,21.5c0-2.481,2.019-4.5,4.5-4.5 c2.381,0,4.347,1.872,4.474,4.263c0.011,0.208,0.15,0.387,0.349,0.45c0.05,0.016,0.101,0.024,0.152,0.024 c0.15,0,0.296-0.069,0.392-0.192C38.638,20.563,39.779,20,41,20c2.206,0,4,1.794,4,4c0,0.117-0.017,0.23-0.032,0.343l-0.019,0.141 c-0.016,0.134,0.022,0.268,0.106,0.373c0.084,0.105,0.207,0.172,0.34,0.185C47.451,25.247,49,26.949,49,29c0,2.206-1.794,4-4,4 h-6.125c-0.276,0-0.5,0.224-0.5,0.5s0.224,0.5,0.5,0.5H45c2.757,0,5-2.243,5-5c0-2.397-1.689-4.413-4.003-4.877 C45.999,24.082,46,24.041,46,24c0-2.757-2.243-5-5-5c-1.176,0-2.293,0.416-3.183,1.164C37.219,17.76,35.055,16,32.5,16L32.5,16z"/><path fill="#472b29" d="M31,23c-1.403,0-2.609,0.999-2.913,2.341C27.72,25.119,27.301,25,26.875,25 c-1.202,0-2.198,0.897-2.353,2.068C24.319,27.022,24.126,27,23.937,27c-1.529,0-2.811,1.2-2.918,2.732 C21.01,29.87,21.114,29.99,21.251,30c0.006,0,0.012,0,0.018,0c0.13,0,0.24-0.101,0.249-0.232c0.089-1.271,1.151-2.268,2.419-2.268 c0.229,0,0.47,0.042,0.738,0.127c0.022,0.007,0.045,0.01,0.067,0.01c0.055,0,0.11-0.02,0.156-0.054 C24.962,27.537,25,27.455,25,27.375c0-1.034,0.841-1.875,1.875-1.875c0.447,0,0.885,0.168,1.231,0.473 c0.047,0.041,0.106,0.063,0.165,0.063c0.032,0,0.063-0.006,0.093-0.019c0.088-0.035,0.148-0.117,0.155-0.212 C28.623,24.512,29.712,23.5,31,23.5c0.208,0,0.425,0.034,0.682,0.107c0.023,0.007,0.047,0.01,0.07,0.01 c0.109,0,0.207-0.073,0.239-0.182c0.038-0.133-0.039-0.271-0.172-0.309C31.517,23.04,31.256,23,31,23L31,23z"/><path fill="#fff" d="M70.405,23H60.5c-0.276,0-0.5-0.224-0.5-0.5s0.224-0.5,0.5-0.5h9.905c0.276,0,0.5,0.224,0.5,0.5 S70.682,23,70.405,23z"/><path fill="#fff" d="M73.5,23h-1c-0.276,0-0.5-0.224-0.5-0.5s0.224-0.5,0.5-0.5h1c0.276,0,0.5,0.224,0.5,0.5 S73.777,23,73.5,23z"/><path fill="#fff" d="M78.491,25H69.5c-0.276,0-0.5-0.224-0.5-0.5s0.224-0.5,0.5-0.5h8.991c0.276,0,0.5,0.224,0.5,0.5 S78.767,25,78.491,25z"/><path fill="#fff" d="M67.5,25h-1c-0.276,0-0.5-0.224-0.5-0.5s0.224-0.5,0.5-0.5h1c0.276,0,0.5,0.224,0.5,0.5 S67.777,25,67.5,25z"/><path fill="#fff" d="M64.5,25h-2c-0.276,0-0.5-0.224-0.5-0.5s0.224-0.5,0.5-0.5h2c0.276,0,0.5,0.224,0.5,0.5 S64.777,25,64.5,25z"/><path fill="#fff" d="M70.5,27h-2c-0.276,0-0.5-0.224-0.5-0.5s0.224-0.5,0.5-0.5h2c0.276,0,0.5,0.224,0.5,0.5 S70.776,27,70.5,27z"/><path fill="#fff" d="M73.5,18c-0.177,0-0.823,0-1,0c-0.276,0-0.5,0.224-0.5,0.5c0,0.276,0.224,0.5,0.5,0.5 c0.177,0,0.823,0,1,0c0.276,0,0.5-0.224,0.5-0.5C74,18.224,73.776,18,73.5,18z"/><path fill="#fff" d="M73.5,20c-0.177,0-4.823,0-5,0c-0.276,0-0.5,0.224-0.5,0.5c0,0.276,0.224,0.5,0.5,0.5 c0.177,0,4.823,0,5,0c0.276,0,0.5-0.224,0.5-0.5C74,20.224,73.776,20,73.5,20z"/><path fill="#fff" d="M78.5,22c-0.177,0-2.823,0-3,0c-0.276,0-0.5,0.224-0.5,0.5c0,0.276,0.224,0.5,0.5,0.5 c0.177,0,2.823,0,3,0c0.276,0,0.5-0.224,0.5-0.5C79,22.224,78.776,22,78.5,22z"/><path fill="#fff" d="M14.5,53h-10C4.224,53,4,52.776,4,52.5S4.224,52,4.5,52h10c0.276,0,0.5,0.224,0.5,0.5 S14.776,53,14.5,53z"/><path fill="#fff" d="M18.5,53h-2c-0.276,0-0.5-0.224-0.5-0.5s0.224-0.5,0.5-0.5h2c0.276,0,0.5,0.224,0.5,0.5 S18.776,53,18.5,53z"/><path fill="#fff" d="M23.5,55h-10c-0.276,0-0.5-0.224-0.5-0.5s0.224-0.5,0.5-0.5h10c0.276,0,0.5,0.224,0.5,0.5 S23.777,55,23.5,55z"/><path fill="#fff" d="M11.5,55h-1c-0.276,0-0.5-0.224-0.5-0.5s0.224-0.5,0.5-0.5h1c0.276,0,0.5,0.224,0.5,0.5 S11.776,55,11.5,55z"/><path fill="#fff" d="M8.47,55H6.5C6.224,55,6,54.776,6,54.5S6.224,54,6.5,54h1.97c0.276,0,0.5,0.224,0.5,0.5 S8.746,55,8.47,55z"/><path fill="#fff" d="M17.5,51h-5c-0.276,0-0.5-0.224-0.5-0.5s0.224-0.5,0.5-0.5h5c0.276,0,0.5,0.224,0.5,0.5 S17.777,51,17.5,51z"/><path fill="#fff" d="M14.5,57h-2c-0.276,0-0.5-0.224-0.5-0.5s0.224-0.5,0.5-0.5h2c0.276,0,0.5,0.224,0.5,0.5 S14.776,57,14.5,57z"/><g><path fill="#f15b6c" d="M52,77.708C39.162,65.451,32.276,56.957,30.957,47.637l-0.052-0.382 c-0.048-0.388-0.098-0.785-0.128-1.181c-0.052-0.646-0.077-1.216-0.077-1.748c0-11.745,9.555-21.3,21.3-21.3s21.3,9.555,21.3,21.3 c0,0.532-0.025,1.103-0.076,1.746c-0.031,0.397-0.081,0.795-0.13,1.191l-0.05,0.366C71.724,56.957,64.838,65.451,52,77.708z"/><path fill="#472b29" d="M52,23.726c11.359,0,20.6,9.241,20.6,20.6c0,0.514-0.025,1.066-0.076,1.697 c-0.029,0.383-0.077,0.768-0.123,1.136l-0.021,0.157c-0.009,0.068-0.017,0.136-0.03,0.222c-1.28,9.041-7.94,17.255-20.35,29.2 C39.59,64.793,32.93,56.579,31.647,47.52c-0.01-0.067-0.019-0.135-0.028-0.204L31.6,47.175c-0.048-0.385-0.097-0.77-0.126-1.161 c-0.05-0.622-0.075-1.174-0.075-1.688C31.4,32.967,40.641,23.726,52,23.726 M52,22.326c-12.15,0-22,9.85-22,22 c0,0.607,0.031,1.207,0.08,1.802c0.03,0.406,0.081,0.814,0.133,1.223c0.018,0.128,0.032,0.257,0.052,0.384 c1.483,10.473,9.7,19.538,21.736,30.939l0,0c12.036-11.401,20.253-20.466,21.736-30.939c0.02-0.127,0.034-0.256,0.052-0.384 c0.051-0.408,0.102-0.816,0.133-1.223c0.048-0.595,0.08-1.195,0.08-1.802C74,32.176,64.15,22.326,52,22.326L52,22.326z"/></g><g><path fill="#fff" d="M52,27c-9.389,0-17,7.611-17,17s7.611,17,17,17s17-7.611,17-17S61.389,27,52,27z"/></g><g><path fill="#fabf82" d="M61.731,53.422c-0.196-1.041-0.621-1.651-1.621-1.953c-0.043-0.013-0.102-0.034-0.168-0.06 c-0.076-0.033-0.172-0.072-0.284-0.115c-0.606-0.256-4.208-1.585-4.208-1.585c-0.297-0.075-0.49-0.287-0.602-0.525 c-0.184-0.393-0.113-1.414-0.113-1.414s-1.506,0.515-2.446,0.691c-0.922,0.09-2.903-1.102-2.903-1.102s-0.047,1.474-0.109,1.801 c-0.049,0.257-0.326,0.474-0.623,0.55l-3.456,1.253c-0.382,0.1-0.749,0.243-1.072,0.442c-0.87,0.537-1.31,1.343-1.535,2.018 c0,0-0.227,1.609-0.219,1.667c-0.022,0.225-0.044,0.473-0.066,0.733c3.767,2.551,6.793,3.265,11.984,3.038 c2.359-0.103,5.87-1.268,7.71-2.196C61.903,54.614,61.731,53.422,61.731,53.422z"/></g><g><path fill="#88cdd7" d="M52.153,60.751c3.668,0,7.048-1.203,9.78-3.229c-0.093-1.922-0.202-4.081-0.202-4.081 c-0.196-1.041-0.621-1.651-1.621-1.953c-0.043-0.013-0.102-0.034-0.168-0.06c-0.076-0.033-0.172-0.072-0.284-0.115 c-0.375-0.159-1.895-0.727-3.001-1.138l-0.052-0.014c-1.221,0.626-2.957,1.565-4.553,1.565c-1.595,0-3.195-0.849-4.553-1.565 l-0.152,0.04l-2.15,0.779c-0.382,0.1-0.749,0.243-1.072,0.442c-0.87,0.537-1.31,1.343-1.535,2.018c0,0-0.227,1.609-0.219,1.667 c-0.016,0.169-0.033,1.577-0.05,2.376C45.064,59.532,48.463,60.751,52.153,60.751z"/></g><g><path fill="#00a5a5" d="M45.5,59.8c-0.166,0-0.3-0.134-0.3-0.3V56c0-0.166,0.134-0.3,0.3-0.3s0.3,0.134,0.3,0.3v3.5 C45.8,59.666,45.666,59.8,45.5,59.8z"/></g><g><path fill="#00a5a5" d="M58.5,59.8c-0.166,0-0.3-0.134-0.3-0.3V56c0-0.166,0.134-0.3,0.3-0.3s0.3,0.134,0.3,0.3v3.5 C58.8,59.666,58.666,59.8,58.5,59.8z"/></g><g><path fill="#fddbbc" d="M57.993,40.169c-0.057-0.004-0.115-0.005-0.175-0.005c-0.468-0.024-0.428,0.161-0.407-0.142 c0.038-0.537-0.207-2.705-0.207-2.815c0-2.258-2.257-4.099-5.078-4.201V33c-0.019,0-0.038,0.003-0.057,0.003 C52.051,33.003,52.032,33,52.013,33v0.007c-2.821,0.102-5.078,1.943-5.078,4.201c0,0.11-0.072,2.289-0.034,2.826 c0.021,0.303-0.112,0.107-0.58,0.131c-0.06,0-0.118,0.001-0.175,0.005c-0.513,0.036-0.929,0.377-1.017,0.799 c0.063,0.04,0.297,1.89,0.675,2.619c0.211,0.407,0.541,0.464,0.88,0.726c0.188,0.146,0.224,0.31,0.275,0.527 c0.19,0.806,0.718,1.49,1.297,2.075c0.286,0.289,2.183,2.4,3.812,2.293c1.637-0.064,3.527-2.005,3.812-2.293 c0.579-0.585,1.107-1.269,1.297-2.075c0.051-0.218,0.087-0.382,0.275-0.527c0.339-0.263,0.669-0.319,0.88-0.726 c0.378-0.729,0.612-2.579,0.675-2.619C58.922,40.546,58.507,40.205,57.993,40.169z"/></g><g><path fill="#472b29" d="M52.125,49.397c-1.054,0-2.724-1.205-2.918-1.348c-0.111-0.082-0.135-0.238-0.053-0.349 c0.082-0.112,0.24-0.135,0.349-0.053c0.51,0.375,2.003,1.326,2.704,1.247c0.896-0.102,2.358-1.131,2.373-1.141 c0.112-0.079,0.269-0.054,0.349,0.059c0.08,0.113,0.053,0.269-0.06,0.348c-0.064,0.045-1.581,1.114-2.605,1.23 C52.219,49.394,52.173,49.397,52.125,49.397z"/></g><g><path fill="#472b29" d="M52,61.5c-9.649,0-17.5-7.85-17.5-17.5S42.351,26.5,52,26.5c2.802,0,5.589,0.679,8.06,1.962 c0.245,0.127,0.34,0.429,0.213,0.674c-0.128,0.245-0.429,0.34-0.674,0.213C57.27,28.14,54.643,27.5,52,27.5 c-9.098,0-16.5,7.402-16.5,16.5S42.902,60.5,52,60.5c8.076,0,14.917-5.769,16.266-13.718c0.046-0.272,0.304-0.455,0.577-0.409 c0.272,0.046,0.456,0.304,0.41,0.577C67.821,55.381,60.565,61.5,52,61.5z"/><path fill="#472b29" d="M65.78,34.541c-0.155,0-0.308-0.072-0.405-0.207c-1.007-1.391-2.219-2.612-3.601-3.63 c-0.223-0.164-0.27-0.477-0.106-0.699c0.163-0.222,0.476-0.27,0.699-0.106c1.465,1.079,2.75,2.374,3.817,3.848 c0.162,0.224,0.112,0.536-0.111,0.698C65.984,34.51,65.881,34.541,65.78,34.541z"/><path fill="#472b29" d="M69,44.5c-0.276,0-0.5-0.224-0.5-0.5c0-2.632-0.601-5.147-1.787-7.477 c-0.125-0.246-0.027-0.547,0.219-0.672c0.246-0.125,0.547-0.027,0.673,0.219C68.862,38.541,69.5,41.209,69.5,44 C69.5,44.276,69.276,44.5,69,44.5z"/></g><g><path fill="#472b29" d="M61.969,57.979c-0.265,0-0.486-0.208-0.499-0.476c-0.098-2.033-0.238-3.957-0.238-3.959 c-0.167-0.869-0.501-1.279-1.268-1.511c-0.053-0.016-0.123-0.041-0.201-0.071c-0.092-0.039-0.181-0.076-0.287-0.116 c-0.603-0.255-4.165-1.569-4.2-1.582c-0.359-0.088-0.689-0.372-0.882-0.782c-0.047-0.1-0.19-0.406-0.172-1.336l0.005-0.252 l0.205-0.146c0.587-0.417,1.019-0.777,1.101-0.856c0.653-0.639,1.022-1.201,1.161-1.77c0.061-0.249,0.133-0.546,0.461-0.792 c0.128-0.096,0.254-0.169,0.376-0.238c0.201-0.113,0.292-0.169,0.364-0.302c0.321-0.599,0.589-1.79,0.614-2.239 c-0.06-0.156-0.26-0.318-0.549-0.337l-0.141-0.003c-0.24-0.011-0.353-0.024-0.431-0.043L57,41.079V38c0-2.757-2.243-5-5-5 s-5,2.243-5,5v3.253l-0.534-0.037l-0.012,0.001L46.32,41.21l-0.142,0.003c-0.288,0.019-0.487,0.18-0.547,0.337 c0.026,0.443,0.299,1.652,0.613,2.239c0.072,0.133,0.163,0.189,0.364,0.302c0.122,0.069,0.248,0.142,0.376,0.238 c0.327,0.246,0.4,0.542,0.458,0.78c0.142,0.582,0.51,1.144,1.164,1.783c0.063,0.062,0.453,0.376,1.04,0.786l0.226,0.157 l-0.012,0.275c-0.043,0.969-0.08,1.164-0.092,1.228c-0.096,0.5-0.567,0.833-0.991,0.941l-3.409,1.239 c-0.406,0.108-0.721,0.237-0.98,0.397c-0.75,0.464-1.062,0.794-1.314,1.724c-0.21,0.776-0.242,2.5-0.256,3.237 c-0.004,0.224-0.008,0.381-0.013,0.439c-0.023,0.275-0.254,0.478-0.54,0.454c-0.274-0.023-0.479-0.265-0.456-0.54 c0.004-0.051,0.006-0.184,0.009-0.372c0.016-0.839,0.048-2.584,0.291-3.479c0.338-1.249,0.856-1.759,1.754-2.313 c0.344-0.212,0.75-0.38,1.208-0.5l3.413-1.24c0.188-0.05,0.289-0.141,0.304-0.179c0.006-0.034,0.03-0.199,0.062-0.807 c-0.424-0.304-0.807-0.601-0.94-0.731c-0.794-0.776-1.25-1.491-1.434-2.249c-0.049-0.198-0.056-0.204-0.09-0.229 c-0.091-0.068-0.182-0.118-0.268-0.167c-0.241-0.136-0.542-0.306-0.753-0.7c-0.405-0.756-0.734-2.219-0.734-2.773l0.011-0.106 c0.131-0.605,0.682-1.068,1.36-1.156V38c0-3.308,2.691-6,6-6s6,2.692,6,6v2.214c0.008,0,0.017,0.001,0.025,0.001 c0.73,0.049,1.336,0.529,1.474,1.167l0.011,0.106c0,0.552-0.315,1.991-0.735,2.773c-0.211,0.395-0.511,0.564-0.752,0.7 c-0.086,0.049-0.177,0.099-0.269,0.167c-0.034,0.026-0.041,0.031-0.087,0.218c-0.188,0.769-0.643,1.484-1.436,2.259 c-0.119,0.116-0.505,0.435-1.01,0.804c0.007,0.386,0.05,0.585,0.079,0.646c0.065,0.138,0.156,0.223,0.272,0.253 c0.198,0.07,3.67,1.351,4.28,1.609c0.106,0.041,0.208,0.082,0.289,0.118l0.114,0.04c1.133,0.342,1.722,1.041,1.966,2.339 c0.007,0.056,0.148,1.993,0.247,4.04c0.013,0.276-0.2,0.51-0.476,0.524C61.986,57.979,61.978,57.979,61.969,57.979z"/></g><g><path fill="#fdfcef" d="M77.5,70.5c0,0,1.567,0,3.5,0s3.5-1.567,3.5-3.5c0-1.781-1.335-3.234-3.055-3.455 C81.473,63.366,81.5,63.187,81.5,63c0-1.933-1.567-3.5-3.5-3.5c-1.032,0-1.95,0.455-2.59,1.165 c-0.384-1.808-1.987-3.165-3.91-3.165c-2.209,0-4,1.791-4,4c0,0.191,0.03,0.374,0.056,0.558C67.128,61.714,66.592,61.5,66,61.5 c-1.228,0-2.245,0.887-2.455,2.055C63.366,63.527,63.187,63.5,63,63.5c-1.933,0-3.5,1.567-3.5,3.5s1.567,3.5,3.5,3.5s7.5,0,7.5,0 V71h7V70.5z"/><path fill="#472b29" d="M79.25,66C79.112,66,79,65.888,79,65.75c0-1.223,0.995-2.218,2.218-2.218 c0.034,0.009,0.737-0.001,1.244,0.136c0.133,0.036,0.212,0.173,0.176,0.306c-0.036,0.134-0.173,0.213-0.306,0.176 c-0.444-0.12-1.1-0.12-1.113-0.118c-0.948,0-1.719,0.771-1.719,1.718C79.5,65.888,79.388,66,79.25,66z"/><circle cx="72.5" cy="70.5" r=".5" fill="#472b29"/><path fill="#472b29" d="M81,71h-3.5c-0.276,0-0.5-0.224-0.5-0.5s0.224-0.5,0.5-0.5H81c1.654,0,3-1.346,3-3 c0-1.496-1.125-2.768-2.618-2.959c-0.134-0.018-0.255-0.088-0.336-0.196s-0.115-0.244-0.094-0.377C80.975,63.314,81,63.16,81,63 c0-1.654-1.346-3-3-3c-0.85,0-1.638,0.355-2.219,1c-0.125,0.139-0.321,0.198-0.5,0.148c-0.182-0.049-0.321-0.195-0.36-0.379 C74.58,59.165,73.141,58,71.5,58c-1.93,0-3.5,1.57-3.5,3.5c0,0.143,0.021,0.28,0.041,0.418c0.029,0.203-0.063,0.438-0.242,0.54 c-0.179,0.102-0.396,0.118-0.556-0.01C66.878,62.155,66.449,62,66,62c-0.966,0-1.792,0.691-1.963,1.644 c-0.048,0.267-0.296,0.446-0.569,0.405C63.314,64.025,63.16,64,63,64c-1.654,0-3,1.346-3,3s1.346,3,3,3h7.5 c0.276,0,0.5,0.224,0.5,0.5S70.776,71,70.5,71H63c-2.206,0-4-1.794-4-4s1.794-4,4-4c0.059,0,0.116,0.002,0.174,0.006 C63.588,61.82,64.711,61,66,61c0.349,0,0.689,0.061,1.011,0.18C67.176,58.847,69.126,57,71.5,57c1.831,0,3.466,1.127,4.153,2.774 C76.333,59.276,77.155,59,78,59c2.206,0,4,1.794,4,4c0,0.048-0.001,0.095-0.004,0.142C83.739,63.59,85,65.169,85,67 C85,69.206,83.206,71,81,71z"/><path fill="#472b29" d="M75.5,70c-0.159,0-0.841,0-1,0c-0.276,0-0.5,0.224-0.5,0.5c0,0.276,0.224,0.5,0.5,0.5 c0.159,0,0.841,0,1,0c0.276,0,0.5-0.224,0.5-0.5C76,70.224,75.776,70,75.5,70z"/></g><g><path fill="#472b29" d="M52.138,52.05c-2.711,0-4.576-1.76-4.603-1.787l0.348-0.36c0.15,0.145,3.742,3.517,8.22,0.228 l0.296,0.403C54.86,51.664,53.407,52.05,52.138,52.05z"/></g></svg>