<svg xmlns="http://www.w3.org/2000/svg"  viewBox="0 0 100 100" width="100px" height="100px"><polygon fill="#f37e98" points="80,51 74,41 68,41 68,51"/><rect width="13" height="30" x="68" y="56" fill="#9dc4e8"/><rect width="13" height="6" x="68" y="80" fill="#78a1d1"/><path fill="#eddc67" d="M68,56h13.5c1.381,0,2.5-1.119,2.5-2.5S82.881,51,81.5,51S68,51,68,51V56z"/><rect width="4" height="6" x="72.5" y="60.5" fill="#e9e3c9"/><rect width="4" height="6" x="72.5" y="70.5" fill="#e9e3c9"/><polyline fill="#f37e98" points="68,31 62,21 48,21 48,20 37,20 37,21 32,21 26,31"/><path fill="#eddc67" d="M69.5,36c1.381,0,2.5-1.119,2.5-2.5S70.881,31,69.5,31s-43.619,0-45,0S22,32.119,22,33.5 s1.119,2.5,2.5,2.5H69.5z"/><rect width="41" height="50" x="27" y="36" fill="#fdd4b2"/><rect width="42" height="6" x="26" y="80" fill="#fcba7f"/><rect width="4" height="6" x="57.5" y="40.5" fill="#eeecd9"/><rect width="4" height="6" x="49.5" y="40.5" fill="#eeecd9"/><rect width="4" height="6" x="57.5" y="50.5" fill="#eeecd9"/><rect width="4" height="6" x="57.5" y="60.5" fill="#eeecd9"/><rect width="4" height="6" x="33.5" y="40.5" fill="#eeecd9"/><rect width="4" height="6" x="41.5" y="40.5" fill="#eeecd9"/><rect width="4" height="6" x="57.5" y="70.5" fill="#eeecd9"/><rect width="4" height="6" x="49.5" y="50.5" fill="#eeecd9"/><rect width="4" height="6" x="49.5" y="60.5" fill="#eeecd9"/><rect width="4" height="6" x="49.5" y="70.5" fill="#eeecd9"/><rect width="29" height="30" x="15" y="56" fill="#78cdd4"/><rect width="29" height="6" x="15" y="80" fill="#f37e98"/><rect width="4" height="15" x="27.5" y="61.5" fill="#fefdef"/><rect width="4" height="15" x="35.5" y="61.5" fill="#fefdef"/><rect width="4" height="15" x="19.5" y="61.5" fill="#fefdef"/><path fill="#eddc67" d="M43.5,56c1.381,0,2.5-1.119,2.5-2.5S44.881,51,43.5,51s-26.619,0-28,0S13,52.119,13,53.5 s1.119,2.5,2.5,2.5H43.5z"/><g><path fill="#1f212b" d="M81.5,57H68c-0.553,0-1-0.448-1-1s0.447-1,1-1h13.5c0.827,0,1.5-0.673,1.5-1.5S82.327,52,81.5,52H68 c-0.553,0-1-0.448-1-1s0.447-1,1-1h13.5c1.93,0,3.5,1.57,3.5,3.5S83.43,57,81.5,57z"/><path fill="#1f212b" d="M81,87c-0.553,0-1-0.448-1-1V56c0-0.552,0.447-1,1-1s1,0.448,1,1v30C82,86.552,81.553,87,81,87z"/><path fill="#1f212b" d="M76.5,67h-4c-0.276,0-0.5-0.224-0.5-0.5v-6c0-0.276,0.224-0.5,0.5-0.5h4c0.276,0,0.5,0.224,0.5,0.5 v6C77,66.776,76.776,67,76.5,67z M73,66h3v-5h-3V66z"/><path fill="#1f212b" d="M76.5,77h-4c-0.276,0-0.5-0.224-0.5-0.5v-6c0-0.276,0.224-0.5,0.5-0.5h4c0.276,0,0.5,0.224,0.5,0.5 v6C77,76.776,76.776,77,76.5,77z M73,76h3v-5h-3V76z"/><path fill="#1f212b" d="M81,81h-4.5c-0.276,0-0.5-0.224-0.5-0.5s0.224-0.5,0.5-0.5H81c0.276,0,0.5,0.224,0.5,0.5 S81.276,81,81,81z"/><path fill="#1f212b" d="M73.5,81h-2c-0.276,0-0.5-0.224-0.5-0.5s0.224-0.5,0.5-0.5h2c0.276,0,0.5,0.224,0.5,0.5 S73.776,81,73.5,81z"/><path fill="#1f212b" d="M80.001,52c-0.34,0-0.671-0.173-0.858-0.485L73.434,42H68c-0.553,0-1-0.448-1-1s0.447-1,1-1h6 c0.352,0,0.677,0.184,0.857,0.485l6,10c0.284,0.474,0.131,1.088-0.343,1.372C80.354,51.954,80.176,52,80.001,52z"/><path fill="#1f212b" d="M69.5,37h-45c-1.93,0-3.5-1.57-3.5-3.5s1.57-3.5,3.5-3.5h45c1.93,0,3.5,1.57,3.5,3.5 S71.43,37,69.5,37z M24.5,32c-0.827,0-1.5,0.673-1.5,1.5s0.673,1.5,1.5,1.5h45c0.827,0,1.5-0.673,1.5-1.5S70.327,32,69.5,32H24.5z"/><path fill="#1f212b" d="M68,87c-0.553,0-1-0.448-1-1V37H28v14c0,0.552-0.447,1-1,1s-1-0.448-1-1V36c0-0.552,0.447-1,1-1h41 c0.553,0,1,0.448,1,1v50C69,86.552,68.553,87,68,87z"/><path fill="#1f212b" d="M44,22h-3c-0.553,0-1-0.448-1-1s0.447-1,1-1h3c0.553,0,1,0.448,1,1S44.553,22,44,22z"/><path fill="#1f212b" d="M25.999,32c-0.175,0-0.353-0.046-0.514-0.143c-0.474-0.284-0.627-0.898-0.343-1.372l6-10 C31.323,20.184,31.648,20,32,20h5c0.553,0,1,0.448,1,1s-0.447,1-1,1h-4.434l-5.709,9.515C26.67,31.827,26.339,32,25.999,32z"/><path fill="#1f212b" d="M68.001,32c-0.34,0-0.671-0.173-0.858-0.485L61.434,22H48c-0.553,0-1-0.448-1-1s0.447-1,1-1h14 c0.352,0,0.677,0.184,0.857,0.485l6,10c0.284,0.474,0.131,1.088-0.343,1.372C68.354,31.954,68.176,32,68.001,32z"/><path fill="#1f212b" d="M37,26c-0.553,0-1-0.448-1-1V10c0-0.552,0.447-1,1-1s1,0.448,1,1v15C38,25.552,37.553,26,37,26z"/><path fill="#1f212b" d="M44,26c-0.553,0-1-0.448-1-1v-9c0-0.552,0.447-1,1-1s1,0.448,1,1v9C45,25.552,44.553,26,44,26z"/><path fill="#1f212b" d="M61.5,47h-4c-0.276,0-0.5-0.224-0.5-0.5v-6c0-0.276,0.224-0.5,0.5-0.5h4c0.276,0,0.5,0.224,0.5,0.5 v6C62,46.776,61.776,47,61.5,47z M58,46h3v-5h-3V46z"/><path fill="#1f212b" d="M53.5,47h-4c-0.276,0-0.5-0.224-0.5-0.5v-6c0-0.276,0.224-0.5,0.5-0.5h4c0.276,0,0.5,0.224,0.5,0.5 v6C54,46.776,53.776,47,53.5,47z M50,46h3v-5h-3V46z"/><path fill="#1f212b" d="M61.5,57h-4c-0.276,0-0.5-0.224-0.5-0.5v-6c0-0.276,0.224-0.5,0.5-0.5h4c0.276,0,0.5,0.224,0.5,0.5 v6C62,56.776,61.776,57,61.5,57z M58,56h3v-5h-3V56z"/><path fill="#1f212b" d="M61.5,67h-4c-0.276,0-0.5-0.224-0.5-0.5v-6c0-0.276,0.224-0.5,0.5-0.5h4c0.276,0,0.5,0.224,0.5,0.5 v6C62,66.776,61.776,67,61.5,67z M58,66h3v-5h-3V66z"/><path fill="#1f212b" d="M37.5,47h-4c-0.276,0-0.5-0.224-0.5-0.5v-6c0-0.276,0.224-0.5,0.5-0.5h4c0.276,0,0.5,0.224,0.5,0.5 v6C38,46.776,37.776,47,37.5,47z M34,46h3v-5h-3V46z"/><path fill="#1f212b" d="M45.5,47h-4c-0.276,0-0.5-0.224-0.5-0.5v-6c0-0.276,0.224-0.5,0.5-0.5h4c0.276,0,0.5,0.224,0.5,0.5 v6C46,46.776,45.776,47,45.5,47z M42,46h3v-5h-3V46z"/><path fill="#1f212b" d="M61.5,77h-4c-0.276,0-0.5-0.224-0.5-0.5v-6c0-0.276,0.224-0.5,0.5-0.5h4c0.276,0,0.5,0.224,0.5,0.5 v6C62,76.776,61.776,77,61.5,77z M58,76h3v-5h-3V76z"/><path fill="#1f212b" d="M53.5,57h-4c-0.276,0-0.5-0.224-0.5-0.5v-6c0-0.276,0.224-0.5,0.5-0.5h4c0.276,0,0.5,0.224,0.5,0.5 v6C54,56.776,53.776,57,53.5,57z M50,56h3v-5h-3V56z"/><path fill="#1f212b" d="M53.5,67h-4c-0.276,0-0.5-0.224-0.5-0.5v-6c0-0.276,0.224-0.5,0.5-0.5h4c0.276,0,0.5,0.224,0.5,0.5 v6C54,66.776,53.776,67,53.5,67z M50,66h3v-5h-3V66z"/><path fill="#1f212b" d="M53.5,77h-4c-0.276,0-0.5-0.224-0.5-0.5v-6c0-0.276,0.224-0.5,0.5-0.5h4c0.276,0,0.5,0.224,0.5,0.5 v6C54,76.776,53.776,77,53.5,77z M50,76h3v-5h-3V76z"/><path fill="#1f212b" d="M49.5,81h-2c-0.276,0-0.5-0.224-0.5-0.5s0.224-0.5,0.5-0.5h2c0.276,0,0.5,0.224,0.5,0.5 S49.776,81,49.5,81z"/><path fill="#1f212b" d="M68,81H52.5c-0.276,0-0.5-0.224-0.5-0.5s0.224-0.5,0.5-0.5H68c0.276,0,0.5,0.224,0.5,0.5 S68.276,81,68,81z"/><path fill="#1f212b" d="M44,87c-0.553,0-1-0.448-1-1V57H16v29c0,0.552-0.447,1-1,1s-1-0.448-1-1V56c0-0.552,0.447-1,1-1h29 c0.553,0,1,0.448,1,1v30C45,86.552,44.553,87,44,87z"/><path fill="#1f212b" d="M31.5,77h-4c-0.276,0-0.5-0.224-0.5-0.5v-15c0-0.276,0.224-0.5,0.5-0.5h4c0.276,0,0.5,0.224,0.5,0.5 v15C32,76.776,31.776,77,31.5,77z M28,76h3V62h-3V76z"/><path fill="#1f212b" d="M31.5,72h-4c-0.276,0-0.5-0.224-0.5-0.5s0.224-0.5,0.5-0.5h4c0.276,0,0.5,0.224,0.5,0.5 S31.776,72,31.5,72z"/><path fill="#1f212b" d="M31.5,67h-4c-0.276,0-0.5-0.224-0.5-0.5s0.224-0.5,0.5-0.5h4c0.276,0,0.5,0.224,0.5,0.5 S31.776,67,31.5,67z"/><path fill="#1f212b" d="M23.5,77h-4c-0.276,0-0.5-0.224-0.5-0.5v-15c0-0.276,0.224-0.5,0.5-0.5h4c0.276,0,0.5,0.224,0.5,0.5 v15C24,76.776,23.776,77,23.5,77z M20,76h3V62h-3V76z"/><path fill="#1f212b" d="M21.5,67h-2c-0.276,0-0.5-0.224-0.5-0.5s0.224-0.5,0.5-0.5h2c0.276,0,0.5,0.224,0.5,0.5 S21.776,67,21.5,67z"/><path fill="#1f212b" d="M23.5,72h-4c-0.276,0-0.5-0.224-0.5-0.5s0.224-0.5,0.5-0.5h4c0.276,0,0.5,0.224,0.5,0.5 S23.776,72,23.5,72z"/><path fill="#1f212b" d="M39.5,67h-4c-0.276,0-0.5-0.224-0.5-0.5s0.224-0.5,0.5-0.5h4c0.276,0,0.5,0.224,0.5,0.5 S39.776,67,39.5,67z"/><path fill="#1f212b" d="M39.5,72h-2c-0.276,0-0.5-0.224-0.5-0.5s0.224-0.5,0.5-0.5h2c0.276,0,0.5,0.224,0.5,0.5 S39.776,72,39.5,72z"/><path fill="#1f212b" d="M39.5,77h-4c-0.276,0-0.5-0.224-0.5-0.5v-15c0-0.276,0.224-0.5,0.5-0.5h4c0.276,0,0.5,0.224,0.5,0.5 v15C40,76.776,39.776,77,39.5,77z M36,76h3V62h-3V76z"/><path fill="#1f212b" d="M21.5,81H15c-0.276,0-0.5-0.224-0.5-0.5S14.724,80,15,80h6.5c0.276,0,0.5,0.224,0.5,0.5 S21.776,81,21.5,81z"/><path fill="#1f212b" d="M26.5,81h-2c-0.276,0-0.5-0.224-0.5-0.5s0.224-0.5,0.5-0.5h2c0.276,0,0.5,0.224,0.5,0.5 S26.776,81,26.5,81z"/><path fill="#1f212b" d="M44,81H29.5c-0.276,0-0.5-0.224-0.5-0.5s0.224-0.5,0.5-0.5H44c0.276,0,0.5,0.224,0.5,0.5 S44.276,81,44,81z"/><path fill="#1f212b" d="M43.5,57h-28c-1.93,0-3.5-1.57-3.5-3.5s1.57-3.5,3.5-3.5h28c1.93,0,3.5,1.57,3.5,3.5 S45.43,57,43.5,57z M15.5,52c-0.827,0-1.5,0.673-1.5,1.5s0.673,1.5,1.5,1.5h28c0.827,0,1.5-0.673,1.5-1.5S44.327,52,43.5,52H15.5z"/><path fill="#1f212b" d="M86,87H10c-0.553,0-1-0.448-1-1s0.447-1,1-1h76c0.553,0,1,0.448,1,1S86.553,87,86,87z"/></g></svg>