<svg xmlns="http://www.w3.org/2000/svg"  viewBox="0 0 30 30" width="30px" height="30px"><path d="M21 10V9c0-3.31-2.69-6-6-6S9 5.69 9 9v1c0 3.31 2.69 6 6 6S21 13.31 21 10zM15 21c-1.49 0-2.85-.55-3.9-1.45-2.94.77-5.71 2.21-6.73 3.54C3.46 24.28 4.33 26 5.83 26h9.55C15.13 25.21 15 24.37 15 23.5c0-.88.13-1.72.38-2.52C15.26 21 15.13 21 15 21zM27.51 18.39c-1.1-.87-2.5-1.39-4.01-1.39-.98 0-1.91.22-2.74.6-1.22.57-2.24 1.51-2.91 2.67C17.31 21.22 17 22.32 17 23.5c0 .88.18 1.73.5 2.5.75 1.81 2.3 3.2 4.2 3.75.57.16 1.17.25 1.8.25s1.23-.09 1.8-.25c.6-.17 1.17-.43 1.68-.76v-.01c.18-.1.34-.22.5-.34C29.02 27.45 30 25.59 30 23.5 30 21.42 29.02 19.58 27.51 18.39zM26.47 26.41c-.07.07-.15.14-.23.19-.08.06-.16.12-.25.16-.09.05-.19.08-.3.11-.17.04-.36.05-.57.02-.04 0-.08-.01-.12-.02-.04 0-.08-.01-.12-.03-.1-.02-.2-.05-.31-.09-.36-.14-.78-.38-1.26-.75-.19-.14-.39-.31-.6-.5-.11-.09-.21-.19-.32-.29-.11-.1-.22-.21-.34-.33-2.58-2.58-2.21-3.74-1.53-4.43.13-.13.26-.21.37-.27h.01c.08-.04.15-.06.21-.08.04 0 .08-.01.12 0 .12 0 .24.07.3.18l.12.21.77 1.31c.07.12.07.27 0 .39l-.36.6c-.08.14-.07.31.03.43.16.22.44.56.74.87.3.3.65.58.87.75.13.1.3.11.43.02l.61-.35c.12-.08.26-.08.38 0 .18.1.45.26.72.42.02 0 .03.01.04.02.14.08.28.16.4.23.14.08.27.15.36.21.15.09.22.26.18.43C26.78 25.98 26.69 26.19 26.47 26.41z"/></svg>