<svg xmlns="http://www.w3.org/2000/svg" xmlns:xlink="http://www.w3.org/1999/xlink" viewBox="0,0,256,256" width="100px" height="100px" fill-rule="nonzero"><g fill="#ffd059" fill-rule="nonzero" stroke="none" stroke-width="1" stroke-linecap="butt" stroke-linejoin="miter" stroke-miterlimit="10" stroke-dasharray="" stroke-dashoffset="0" font-family="none" font-weight="none" font-size="none" text-anchor="none" style="mix-blend-mode: normal"><g transform="scale(2.56,2.56)"><path d="M50,12c-15.45242,0 -28,12.54759 -28,28c0,8.5625 6.8913,20.26574 13.67773,30.06836c6.78643,9.80262 13.56836,17.58789 13.56836,17.58789c0.18993,0.2179 0.46485,0.34297 0.75391,0.34297c0.28906,0 0.56398,-0.12507 0.75391,-0.34297c0,0 6.78193,-7.78527 13.56836,-17.58789c6.78643,-9.80262 13.67773,-21.50586 13.67773,-30.06836c0,-15.45241 -12.54758,-28 -28,-28zM50,14c14.37158,0 26,11.62842 26,26c0,7.4375 -6.60869,19.23426 -13.32227,28.93164c-6.11085,8.82679 -11.62906,15.28312 -12.67773,16.50195c-1.04867,-1.21884 -6.56688,-7.67517 -12.67773,-16.50195c-6.71357,-9.69738 -13.32227,-21.49414 -13.32227,-28.93164c0,-14.37158 11.62841,-26 26,-26zM50,19c-11.59221,0 -21,9.40779 -21,21c0,11.59221 9.40779,21 21,21c11.41933,0 20.70019,-9.13383 20.97461,-20.48828c0.00424,-0.17867 -0.08717,-0.34602 -0.2398,-0.439c-0.15263,-0.09298 -0.34327,-0.09745 -0.50009,-0.01172c-0.15682,0.08572 -0.25597,0.24861 -0.26011,0.42728c-0.15239,6.30559 -3.22425,11.87122 -7.9043,15.43164c-0.67923,-1.34024 -1.83419,-2.40992 -3.27734,-2.97266c-0.01739,-0.007 -0.03498,-0.01352 -0.05273,-0.01953l-4.01953,-1.31641c-0.0025,-0.00072 -0.48141,-0.23597 -0.625,-0.83789c0.69533,-0.43932 1.43187,-0.90439 2.14648,-1.71094c0.86679,-0.9783 1.58385,-2.23934 1.68555,-3.68164c0.54452,-0.35772 0.98055,-0.82569 1.14844,-1.35937c0.08342,-0.25916 0.29457,-0.96113 0.49805,-1.66602c0.10221,-0.35407 0.1988,-0.70101 0.27344,-0.98047c0.03732,-0.13973 0.06905,-0.26147 0.09375,-0.36719c0.02469,-0.10572 0.05859,-0.06274 0.05859,-0.40039c0,-0.55809 -0.23965,-1.14314 -0.55078,-1.44141c-0.00065,-0.00065 -0.0013,-0.0013 -0.00195,-0.00195c-0.12295,-0.11736 -0.08101,-0.07032 -0.09375,-0.08008c-0.01274,-0.0098 -0.02407,-0.01957 -0.03711,-0.0293c-0.02609,-0.01946 -0.0586,-0.04113 -0.0957,-0.06836c-0.06241,-0.04577 -0.14198,-0.10482 -0.2207,-0.16211v-2.82422c0,-4.95852 -4.04148,-9 -9,-9c-4.95852,0 -9,4.04148 -9,9v2.82422c-0.07872,0.05729 -0.15825,0.11629 -0.2207,0.16211c-0.0371,0.02723 -0.06961,0.0489 -0.0957,0.06836c-0.01304,0.0097 -0.02437,0.01954 -0.03711,0.0293c-0.01274,0.0098 0.0292,-0.03728 -0.09375,0.08008c-0.31524,0.30086 -0.55273,0.88593 -0.55273,1.44336c0,0.33765 0.0339,0.29467 0.05859,0.40039c0.0247,0.10572 0.05643,0.22746 0.09375,0.36719c0.07464,0.27945 0.17123,0.6264 0.27344,0.98047c0.20348,0.70489 0.41463,1.40685 0.49805,1.66602c0.16808,0.5343 0.60464,1.00197 1.14844,1.35938c0.10171,1.44198 0.81882,2.70145 1.68555,3.67969c0.71464,0.80658 1.45133,1.27335 2.14648,1.71289c-0.14359,0.60192 -0.62247,0.83717 -0.625,0.83789h-0.00195l-4.01758,1.31641c-0.01776,0.00602 -0.03534,0.01253 -0.05273,0.01953c-1.44452,0.56371 -2.59981,1.63493 -3.2793,2.97656c-4.8101,-3.65134 -7.92773,-9.41428 -7.92773,-15.92383c0,-11.05179 8.94821,-20 20,-20c3.3511,0 6.49843,0.83229 9.26758,2.29102c0.15879,0.0909 0.35455,0.08782 0.5104,-0.00803c0.15585,-0.09585 0.24691,-0.26917 0.23742,-0.45189c-0.00949,-0.18272 -0.11802,-0.34567 -0.28297,-0.42485c-2.90685,-1.53127 -6.21552,-2.40625 -9.73242,-2.40625zM62.10742,22.99609c-0.21281,0.00993 -0.39596,0.15359 -0.45628,0.35791c-0.06033,0.20432 0.01542,0.42442 0.1887,0.54834c1.50072,1.11042 2.84173,2.42404 3.98047,3.90234c0.1047,0.15296 0.28541,0.23546 0.46957,0.21436c0.18415,-0.0211 0.34153,-0.14234 0.40891,-0.31502c0.06738,-0.17268 0.03372,-0.36846 -0.08747,-0.50872c-1.19526,-1.55169 -2.6005,-2.93208 -4.17578,-4.09766c-0.09395,-0.07154 -0.21019,-0.10751 -0.32812,-0.10156zM50,29c3.87748,0 7,3.12252 7,7v3.33398c-0.00004,0.32097 0.15397,0.62246 0.41406,0.81055c0,0 0.18187,0.13281 0.36719,0.26758c0.07582,0.05514 0.14554,0.10592 0.20898,0.15234c-0.01651,0.06996 -0.04134,0.17181 -0.07422,0.29492c-0.06843,0.2562 -0.16363,0.59486 -0.26367,0.94141c-0.20008,0.6931 -0.42703,1.44344 -0.48242,1.61523c-0.00066,0.00195 -0.00131,0.0039 -0.00195,0.00586c-0.06975,0.22171 -0.13075,0.33529 -0.45703,0.43359c-0.422,0.12746 -0.71078,0.5162 -0.71094,0.95703v0.27148c0,0.83821 -0.5145,1.81366 -1.25586,2.65039c-0.74136,0.83673 -1.69627,1.51809 -2.19336,1.76758c-0.33739,0.16967 -0.55044,0.51492 -0.55078,0.89258v0.15234c0,2.09266 2.00586,2.93359 2.00586,2.93359c0.01549,0.00559 0.03112,0.0108 0.04688,0.01563l4.01563,1.31641c1.06798,0.41725 1.8815,1.24292 2.31641,2.25586c-3.0271,1.84838 -6.57361,2.93164 -10.38477,2.93164c-3.80864,0 -7.35395,-1.08246 -10.38281,-2.92773c0.4353,-1.01487 1.24597,-1.84199 2.31445,-2.25977l0.00195,-0.00195l4.01367,-1.31445c0.01575,-0.00482 0.03138,-0.01003 0.04688,-0.01562c0,0 2.00586,-0.84093 2.00586,-2.93359v-0.15234c-0.00034,-0.37765 -0.21339,-0.72291 -0.55078,-0.89258c-0.49761,-0.25013 -1.45195,-0.93078 -2.19336,-1.76758c-0.74141,-0.83679 -1.25586,-1.81284 -1.25586,-2.65039v-0.27148c-0.00016,-0.44083 -0.28893,-0.82957 -0.71094,-0.95703c-0.32536,-0.09818 -0.38766,-0.21309 -0.45703,-0.43359c-0.00064,-0.00196 -0.0013,-0.00391 -0.00195,-0.00586c-0.05539,-0.1718 -0.28234,-0.92213 -0.48242,-1.61523c-0.10004,-0.34655 -0.19525,-0.6852 -0.26367,-0.94141c-0.03288,-0.12311 -0.05771,-0.22496 -0.07422,-0.29492c0.06345,-0.04643 0.13316,-0.09721 0.20898,-0.15234c0.18532,-0.13477 0.36719,-0.26758 0.36719,-0.26758c0.26009,-0.18808 0.41411,-0.48957 0.41406,-0.81055v-3.33398c0,-3.87748 3.12252,-7 7,-7zM68.14844,29.99414c-0.17655,-0.00062 -0.34034,0.09191 -0.43094,0.24344c-0.0906,0.15153 -0.09458,0.33961 -0.01046,0.49484c0.49008,0.93526 0.91075,1.91194 1.25,2.92578c0.04927,0.17826 0.19291,0.31476 0.37344,0.35491c0.18053,0.04014 0.36848,-0.02264 0.48865,-0.16322c0.12017,-0.14058 0.15293,-0.33601 0.08518,-0.50809c-0.35675,-1.06616 -0.79663,-2.09348 -1.31055,-3.07422c-0.08522,-0.16762 -0.25727,-0.27327 -0.44531,-0.27344zM42.00391,40.56836c-0.00288,-0.05634 -0.00391,-0.16678 -0.00391,0.03906c0,-0.03249 -0.00406,-0.01657 -0.00586,-0.03125c0.00351,-0.0025 0.00673,-0.00559 0.00977,-0.00781zM57.99609,40.56836c0.00303,0.00223 0.00625,0.00531 0.00977,0.00781c-0.0017,0.01495 -0.00586,-0.00125 -0.00586,0.03125c0,-0.20585 -0.00101,-0.0954 -0.00391,-0.03906z"></path></g></g></svg>