<svg xmlns="http://www.w3.org/2000/svg"  viewBox="0 0 96 96" width="96px" height="96px"><path fill="#2ac58f" d="M12.17,79.41a6,6,0,0,0-5.88,4.85,3.73,3.73,0,1,0-1.55,7.13h7.43a6,6,0,0,0,0-12Z"/><rect width="13.38" height="21.65" x="9.88" y="15.68" fill="#ffab8a"/><path fill="#ff8867" d="M9.88,15.68v3.11H16a2.2,2.2,0,0,1,1.56,3.76L9.88,30.22v7.11h4.25l9.13-9.13V15.68Z"/><polygon fill="#ffb080" points="77.03 47.9 77.03 91.39 9.88 91.39 9.88 48.67 43.84 14.72 77.03 47.9"/><path fill="#ffd894" d="M73.31,52.87V85.79a1.88,1.88,0,0,1-1.88,1.88H15.49a1.88,1.88,0,0,1-1.88-1.88V53.64A8.26,8.26,0,0,1,16,47.8L41.88,22a2.78,2.78,0,0,1,3.92,0L70.89,47A8.26,8.26,0,0,1,73.31,52.87Z"/><path fill="#ffb080" d="M13.61,50.22c39.36-39.35,41.26-41.26,0,0Z"/><path fill="#ffb080" d="M73.31,49.44c0,.11.65.68-29.47-29.45Z"/><path fill="#fff1ad" d="M59.22,43.73H28.47a1.49,1.49,0,0,1-1-2.55L42.79,25.82a1.48,1.48,0,0,1,2.11,0L60.27,41.18A1.49,1.49,0,0,1,59.22,43.73Z"/><path fill="#fff" d="M46.71,32.89l-2.3-2.29a.8.8,0,0,0-1.14,0L41,32.89a.81.81,0,0,0,.57,1.38h4.59A.81.81,0,0,0,46.71,32.89Z"/><path fill="#e66f49" d="M85.87,49.34l-1.73,1.73a2.79,2.79,0,0,1-4,0L43.84,14.72,7.49,51.07a2.78,2.78,0,0,1-3.94,0L1.82,49.34a2.79,2.79,0,0,1,0-4l39.9-39.9a3,3,0,0,1,4.24,0l39.91,39.9A2.79,2.79,0,0,1,85.87,49.34Z"/><path fill="#ff974e" d="M86.63,46.82a1.08,1.08,0,0,1-1.85.91c-7.07-7.1-40-40-40.19-40.2a1.06,1.06,0,0,0-1.49,0c-.19.18-33.16,33.13-40.19,40.21a1.09,1.09,0,0,1-1.86-.91,2.83,2.83,0,0,1,.77-1.44L41.73,5.49a3,3,0,0,1,4.23,0l39.91,39.9A2.75,2.75,0,0,1,86.63,46.82Z"/><rect width="23.31" height="32.7" x="46.63" y="58.69" fill="#f02f62"/><rect width="25.29" height="17.72" x="45.64" y="67.09" fill="#ff4d6c" rx="1.02" transform="rotate(-90 58.285 75.955)"/><rect width="12.14" height="3.78" x="52.21" y="66.1" fill="#fff" rx=".54"/><rect width="23.31" height="2.5" x="46.63" y="58.69" fill="#b92053"/><path fill="#cef0fc" d="M40.29,58.69V74.5A1.31,1.31,0,0,1,39,75.81H18.29A1.31,1.31,0,0,1,17,74.5V58.69Z"/><rect width="19.58" height="14.19" x="18.85" y="60.15" fill="#fffffc" rx=".99"/><path fill="#e16a3f" d="M48.77,53.7h19a2.15,2.15,0,0,1,2.15,2.15v2.84a0,0,0,0,1,0,0H46.63a0,0,0,0,1,0,0V55.85A2.15,2.15,0,0,1,48.77,53.7Z"/><path fill="#f5923f" d="M50.41,55.3H66.16a1,1,0,0,1,1,1v2.41a0,0,0,0,1,0,0H49.42a0,0,0,0,1,0,0V56.28A1,1,0,0,1,50.41,55.3Z"/><path fill="#e16a3f" d="M19.13,53.7h19a2.15,2.15,0,0,1,2.15,2.15v2.84a0,0,0,0,1,0,0H17a0,0,0,0,1,0,0V55.85A2.15,2.15,0,0,1,19.13,53.7Z"/><path fill="#f5923f" d="M20.76,55.3H36.51a1,1,0,0,1,1,1v2.41a0,0,0,0,1,0,0H19.77a0,0,0,0,1,0,0V56.28A1,1,0,0,1,20.76,55.3Z"/><circle cx="52.65" cy="75.04" r="1.93" fill="#405075"/><rect width="6.42" height="18.81" x="13.36" y="3.06" fill="#ff5b49" rx="1.82" transform="rotate(90 16.575 12.465)"/><rect width="6.42" height="9.92" x="13.36" y="7.51" fill="#ff7449" rx="1.82" transform="rotate(90 16.575 12.465)"/><path fill="#fffbc6" d="M32.47,81.53H24.8a1,1,0,0,1,0-1.9h7.67a1,1,0,0,1,0,1.9Z"/><rect width="5.86" height="17.6" x="74.67" y="73.79" fill="#ff8d6d"/><rect width="5.86" height="8.19" x="74.67" y="73.79" fill="#e66f49"/><rect width="34.8" height="20.41" x="60.2" y="58.69" fill="#27aafc" rx="1.9"/><rect width="12.56" height="26.95" x="71.32" y="55.42" fill="#27b9fc" rx=".5" transform="rotate(90 77.6 68.9)"/><path fill="#302d3d" d="M41.38,55.86a3.15,3.15,0,0,0-3.14-3.15H19.16A3.15,3.15,0,0,0,16,55.86v20a1,1,0,0,0,1,1H40.38a1,1,0,0,0,1-1ZM18,59.71H27.7v6.58H18Zm11.68,0h9.68v6.58H29.7ZM18,55.86a1.15,1.15,0,0,1,1.14-1.15H38.24a1.15,1.15,0,0,1,1.14,1.15v1.85H18Zm0,12.43H27.7v6.57H18ZM29.7,74.86V68.29h9.68v6.57Z"/><path fill="#302d3d" d="M32.54,79.64H24.86a1,1,0,0,0,0,2h7.68a1,1,0,1,0,0-2Z"/><path fill="#302d3d" d="M93.31,57.71H78.2V50.32l1.46,1.46a3.79,3.79,0,0,0,5.37,0l1.74-1.73a3.81,3.81,0,0,0,0-5.38l-40-40a4.1,4.1,0,0,0-5.66,0l-16.8,16.8V16.6A2.83,2.83,0,0,0,27,13.78V11a2.83,2.83,0,0,0-2.82-2.82H9A2.83,2.83,0,0,0,6.18,11v2.8A2.82,2.82,0,0,0,8.9,16.6V36.89L1.12,44.67a3.81,3.81,0,0,0,0,5.38l1.73,1.73a3.8,3.8,0,0,0,5.37,0l.68-.68V79.32a7,7,0,0,0-3.28,3.75,4.75,4.75,0,1,0-.87,9.41h76a1,1,0,0,0,1-1V80.17h11.6a2.9,2.9,0,0,0,2.9-2.9V60.61A2.9,2.9,0,0,0,93.31,57.71ZM8.18,13.78V11A.82.82,0,0,1,9,10.16H24.22A.82.82,0,0,1,25,11v2.8a.82.82,0,0,1-.82.82H9A.82.82,0,0,1,8.18,13.78ZM10.9,16.6H22.31v6.88L10.9,34.89ZM6.8,50.36a1.8,1.8,0,0,1-2.54,0L2.53,48.63a1.8,1.8,0,0,1,0-2.54l40-40a2,2,0,0,1,2.84,0l40,40a1.8,1.8,0,0,1,0,2.54l-1.73,1.73a1.8,1.8,0,0,1-2.54,0L44.65,13.93a1,1,0,0,0-1.42,0ZM2,87.74a2.74,2.74,0,0,1,3.89-2.49,1,1,0,0,0,1.4-.72,4.93,4.93,0,0,1,1.61-2.8v8.75H4.75A2.75,2.75,0,0,1,2,87.74Zm8.9,2.74V49.1l33-33L76.2,48.32v9.39H71.09V55.86A3.15,3.15,0,0,0,68,52.71H48.88a3.15,3.15,0,0,0-3.15,3.15V90.48ZM47.73,57.71V55.86a1.15,1.15,0,0,1,1.15-1.15H68a1.15,1.15,0,0,1,1.14,1.15v1.85Zm0,32.77V59.71H59.47c-.2.62-.14-.74-.14,17.56a2.9,2.9,0,0,0,2.9,2.9h6.86V90.48ZM71.09,80.17h2.74V90.48H71.09Zm8.62,10.31H75.83V80.17h3.88Zm14.5-13.21a.91.91,0,0,1-.9.9H62.23a.91.91,0,0,1-.9-.9V60.61a.9.9,0,0,1,.9-.9H93.31a.9.9,0,0,1,.9.9Z"/><path fill="#302d3d" d="M69.14,68.78a2.7,2.7,0,0,0-1.46-5H65.43a1,1,0,0,0-1,1v8.26a1,1,0,0,0,2,0V69.22h.66l2,3.64c.37.68.55,1.21,1.26,1.21a1,1,0,0,0,.87-1.48Zm-2.71-3h1.25a.71.71,0,0,1,.07,1.41s0,0,0,0h-1.3Z"/><path fill="#302d3d" d="M76.13,65.81a1,1,0,0,0,0-2h-3a1,1,0,0,0-1,1v8.26a1,1,0,0,0,1,1h3a1,1,0,0,0,0-2h-2V69.94h.77a1,1,0,0,0,0-2H74.1V65.81Z"/><path fill="#302d3d" d="M83.38,63.81a1,1,0,0,0-1,1v4L80.2,64.37a1,1,0,0,0-1.9.44v8.26a1,1,0,0,0,2,0v-4l2.18,4.42a1,1,0,0,0,1.9-.44V64.81A1,1,0,0,0,83.38,63.81Z"/><path fill="#302d3d" d="M90.12,63.81H85.81a1,1,0,0,0,0,2H87v7.26a1,1,0,0,0,2,0V65.81h1.16a1,1,0,0,0,0-2Z"/></svg>