<svg xmlns="http://www.w3.org/2000/svg"  viewBox="0 0 24 24" width="24px" height="24px"><path d="M 12 1 C 8.433 1 5.34825 3.5557188 4.65625 7.0117188 C 2.05925 7.1887187 0 9.358 0 12 C 5.9211895e-16 14.55 1.9103594 16.685797 4.4433594 16.966797 C 4.4633594 16.968797 4.4829531 16.970703 4.5019531 16.970703 C 4.7529531 16.970703 4.9680938 16.781391 4.9960938 16.525391 C 5.0270937 16.251391 4.8306406 16.003656 4.5566406 15.972656 C 2.5286406 15.747656 1 14.04 1 12 C 1 9.794 2.7940781 8 5.0800781 8 C 5.3290781 8 5.5392187 7.8163125 5.5742188 7.5703125 C 6.0222188 4.3953125 8.785 2 12 2 C 14.513 2 16.818953 3.4644687 17.876953 5.7304688 C 17.954953 5.8974688 18.117734 6.0095313 18.302734 6.0195312 C 20.936734 6.1655312 23 8.353 23 11 C 23 13.232 21.506187 15.206828 19.367188 15.798828 C 19.101188 15.871828 18.945531 16.146109 19.019531 16.412109 C 19.092531 16.678109 19.366766 16.834719 19.634766 16.761719 C 22.204766 16.049719 24 13.68 24 11 C 24 7.922 21.674344 5.3619219 18.652344 5.0449219 C 17.380344 2.5789219 14.801 1 12 1 z M 12 11 C 11.872 11 11.743984 11.048984 11.646484 11.146484 L 6.6464844 16.146484 C 6.5044844 16.289484 6.4601094 16.504406 6.5371094 16.691406 C 6.6141094 16.878406 6.798 17 7 17 L 9.5 17 L 9.5 22 C 9.5 22.551 9.948 23 10.5 23 L 13.5 23 C 14.052 23 14.5 22.551 14.5 22 L 14.5 17 L 17 17 C 17.202 17 17.382938 16.878406 17.460938 16.691406 C 17.538938 16.504406 17.496516 16.289484 17.353516 16.146484 L 12.353516 11.146484 C 12.256016 11.048984 12.128 11 12 11 z M 12 12.207031 L 15.792969 16 L 14 16 C 13.724 16 13.5 16.224 13.5 16.5 L 13.5 22 L 10.5 22 L 10.5 16.5 C 10.5 16.224 10.276 16 10 16 L 8.2070312 16 L 12 12.207031 z"/></svg>