<svg xmlns="http://www.w3.org/2000/svg" xmlns:xlink="http://www.w3.org/1999/xlink" viewBox="0,0,256,256" width="64px" height="64px" fill-rule="nonzero"><defs><linearGradient x1="32" y1="18" x2="32" y2="31.807" gradientUnits="userSpaceOnUse" id="color-1"><stop offset="0" stop-color="#eaee83"></stop><stop offset="1" stop-color="#fdc599"></stop></linearGradient><linearGradient x1="32" y1="5.5" x2="32" y2="59.274" gradientUnits="userSpaceOnUse" id="color-2"><stop offset="0" stop-color="#d9e021"></stop><stop offset="1" stop-color="#fb872b"></stop></linearGradient><linearGradient x1="32" y1="5.5" x2="32" y2="59.274" gradientUnits="userSpaceOnUse" id="color-3"><stop offset="0" stop-color="#d9e021"></stop><stop offset="1" stop-color="#fb872b"></stop></linearGradient><linearGradient x1="24.5" y1="5.5" x2="24.5" y2="59.274" gradientUnits="userSpaceOnUse" id="color-4"><stop offset="0" stop-color="#d9e021"></stop><stop offset="1" stop-color="#fb872b"></stop></linearGradient></defs><g fill="#dddddd" fill-rule="nonzero" stroke="none" stroke-width="1" stroke-linecap="butt" stroke-linejoin="miter" stroke-miterlimit="10" stroke-dasharray="" stroke-dashoffset="0" font-family="none" font-weight="none" font-size="none" text-anchor="none" style="mix-blend-mode: normal"><path d="M0,256v-256h256v256z" id="bgRectangle"></path></g><g fill="none" fill-rule="nonzero" stroke="none" stroke-width="1" stroke-linecap="butt" stroke-linejoin="miter" stroke-miterlimit="10" stroke-dasharray="" stroke-dashoffset="0" font-family="none" font-weight="none" font-size="none" text-anchor="none" style="mix-blend-mode: normal"><g transform="scale(4,4)"><path d="M32,19c-3.31371,0 -6,2.68629 -6,6c0,3.31371 2.68629,6 6,6c3.31371,0 6,-2.68629 6,-6c0,-3.31371 -2.68629,-6 -6,-6z" fill="url(#color-1)"></path><path d="M25,25c0,3.859 3.141,7 7,7c3.859,0 7,-3.141 7,-7c0,-3.859 -3.141,-7 -7,-7c-3.859,0 -7,3.141 -7,7zM37,25c0,2.757 -2.243,5 -5,5c-2.757,0 -5,-2.243 -5,-5c0,-2.757 2.243,-5 5,-5c2.757,0 5,2.243 5,5z" fill="url(#color-2)"></path><path d="M39.105,48.41c5.454,-5.772 11.895,-15.082 11.895,-23.41c0,-10.477 -8.523,-19 -19,-19c-10.477,0 -19,8.523 -19,19c0,8.328 6.441,17.639 11.895,23.41c-4.007,0.486 -9.895,1.691 -9.895,4.59c0,3.955 11.12,5 17,5c5.88,0 17,-1.045 17,-5c0,-2.899 -5.889,-4.104 -9.895,-4.59zM20.779,40.255c3.106,-2.739 7.056,-4.255 11.221,-4.255c4.165,0 8.115,1.516 11.222,4.255c-4.398,6.39 -9.91,11.226 -11.222,11.724c-1.313,-0.498 -6.824,-5.334 -11.221,-11.724zM32,8c9.374,0 17,7.626 17,17c0,4.581 -2.016,9.343 -4.669,13.571c-3.439,-2.944 -7.77,-4.571 -12.331,-4.571c-4.561,0 -8.891,1.627 -12.33,4.572c-2.654,-4.228 -4.67,-8.991 -4.67,-13.572c0,-9.374 7.626,-17 17,-17zM32,56c-9.743,0 -15,-2.129 -15,-3c0,-0.428 2.345,-2.113 9.706,-2.768c2.451,2.343 4.488,3.768 5.294,3.768c0.806,0 2.843,-1.425 5.294,-3.768c7.362,0.655 9.706,2.34 9.706,2.768c0,0.871 -5.257,3 -15,3z" fill="url(#color-3)"></path><path d="M32,12v-2c-8,0 -15,6.729 -15,15h2c0,-7.168 6,-13 13,-13z" fill="url(#color-4)"></path></g></g></svg>